<?xml version="1.0" encoding="UTF-8"?>
<svg width="16px" height="16px" viewBox="0 0 16 16" version="1.1" xmlns="http://www.w3.org/2000/svg" xmlns:xlink="http://www.w3.org/1999/xlink">
    <!-- Generator: Sketch 63.1 (92452) - https://sketch.com -->
    <title>Artboard</title>
    <desc>Created with Sketch.</desc>
    <g id="Artboard" stroke="none" stroke-width="1" fill="none" fill-rule="evenodd">
        <g id="x" transform="translate(2.000000, 2.000000)" fill="#FFFFFF" fill-rule="nonzero">
            <path d="M11.6464466,-0.353553391 C11.8417088,-0.548815536 12.1582912,-0.548815536 12.3535534,-0.353553391 C12.5271197,-0.179987039 12.5464049,0.0894373624 12.4114088,0.284305503 L12.3535534,0.353553391 L0.353553391,12.3535534 C0.158291245,12.5488155 -0.158291245,12.5488155 -0.353553391,12.3535534 C-0.527119742,12.179987 -0.546404893,11.9105626 -0.411408841,11.7156945 L-0.353553391,11.6464466 L11.6464466,-0.353553391 Z" id="Path"></path>
            <path d="M-0.353553391,-0.353553391 C-0.179987039,-0.527119742 0.0894373624,-0.546404893 0.284305503,-0.411408841 L0.353553391,-0.353553391 L12.3535534,11.6464466 C12.5488155,11.8417088 12.5488155,12.1582912 12.3535534,12.3535534 C12.179987,12.5271197 11.9105626,12.5464049 11.7156945,12.4114088 L11.6464466,12.3535534 L-0.353553391,0.353553391 C-0.548815536,0.158291245 -0.548815536,-0.158291245 -0.353553391,-0.353553391 Z" id="Path"></path>
        </g>
    </g>
</svg>