<svg xmlns="http://www.w3.org/2000/svg" width="16" height="20" viewBox="0 0 16 20">
    <path fill="#FFF" fill-rule="evenodd" d="M15.642 20a.357.357 0 0 1-.305-.172l-3.27-5.526a7.827 7.827 0 0 1-4.22 1.229C3.52 15.53 0 12.048 0 7.765 0 3.484 3.52 0 7.847 0s7.847 3.484 7.847 7.765c0 1.89-.705 3.717-1.983 5.144a.358.358 0 1 1-.534-.478 6.986 6.986 0 0 0 1.8-4.666c0-3.886-3.199-7.049-7.13-7.049-3.932 0-7.13 3.163-7.13 7.05s3.198 7.049 7.13 7.049a7.123 7.123 0 0 0 4.125-1.31.359.359 0 0 1 .512.106l3.463 5.843a.358.358 0 0 1-.305.545"/>
</svg>
