<svg xmlns="http://www.w3.org/2000/svg" viewBox="0 0 103 24"><defs><style>.cls-1{fill:#0cc;}</style></defs><title>Vero Bolder WEBVIEW 00CCCC</title><g id="Vero_Bolder_WEBVIEW_00CCCC" data-name="Vero Bolder WEBVIEW 00CCCC"><path id="Vero_TM_S_-_00CCCC" data-name="Vero_TM S - 00CCCC" class="cls-1" d="M87.29.5C81,.5,76.56,5.25,76.56,12.05a12.05,12.05,0,0,0,2.92,8.14,10.9,10.9,0,0,0,15.65,0,12,12,0,0,0,2.93-8.14C98.06,5.25,93.63.5,87.29.5Zm0,21A8,8,0,0,1,81,18.67a10.11,10.11,0,0,1-2.28-6.62A10.31,10.31,0,0,1,81,5.34a8,8,0,0,1,6.31-2.81c5.08,0,8.63,3.92,8.63,9.52C95.92,18.52,91.45,21.47,87.29,21.47Zm-21.8-6.61a6.5,6.5,0,0,0,5.1-6.53c0-4.63-3.13-7.1-8.36-7.1h-8V22.77h2.08V15.28h6.81l5.75,7.26.2.26h1.7V21.63Zm3-6.5c0,3.11-2.25,4.84-5.74,4.87H56.34V3.31h5.92C66.17,3.31,68.5,5,68.5,8.36ZM33.75,3.28v7.61H45.16v2H33.75v7.81h13V22.8H31.63V1.23H46.74V3.28ZM13.52,22.71h0L1,1.2H19.07L11.44,14.41l2.08,3.75,9.77-17h2.79ZM98,4V2.07h-.69V1.72h1.78v.35h-.69V4Zm3.66,0V2.31L100.94,4h-.17l-.69-1.68V4h-.4V1.72h.56l.62,1.5.62-1.5H102V4Z"/></g></svg>